<svg width="632" height="89" viewBox="0 0 632 89" fill="none" xmlns="http://www.w3.org/2000/svg">
<rect x="3" y="3" width="626.003" height="82.0334" rx="23" stroke="white" stroke-width="6"/>
<path d="M21.0951 20.4878L36.8224 20.4869L47.6421 46.85L48.1875 46.8499L59.0042 20.4857L74.7315 20.4848L74.7341 67.0303L62.3705 67.031L62.369 40.1219L62.0053 40.1219L51.6432 66.6679L44.1886 66.6683L33.8235 39.9416L33.4599 39.9417L33.4614 67.0326L21.0978 67.0333L21.0951 20.4878ZM88.9737 67.0295L75.3373 67.0302L90.6983 20.4839L107.971 20.4829L123.337 67.0275L109.701 67.0283L99.5172 33.3016L99.1536 33.3016L88.9737 67.0295ZM86.4272 48.666L112.064 48.6645L112.064 58.1191L86.4277 58.1205L86.4272 48.666ZM152.018 35.8441C151.821 35.0411 151.511 34.3366 151.086 33.7305C150.662 33.1093 150.132 32.5866 149.495 32.1624C148.874 31.7231 148.147 31.3974 147.313 31.1853C146.495 30.9581 145.594 30.8445 144.609 30.8445C142.488 30.8446 140.677 31.3523 139.177 32.3676C137.692 33.3828 136.556 34.845 135.768 36.7541C134.996 38.6632 134.609 40.9663 134.61 43.6633C134.61 46.3905 134.981 48.7239 135.724 50.6632C136.466 52.6026 137.572 54.0873 139.042 55.1176C140.512 56.1478 142.338 56.6628 144.519 56.6627C146.444 56.6626 148.042 56.3822 149.315 55.8215C150.603 55.2609 151.565 54.4653 152.201 53.435C152.837 52.4047 153.155 51.1925 153.155 49.7986L155.337 50.0257L144.701 50.0263L144.7 41.0263L165.337 41.0252L165.337 47.4797C165.337 51.7221 164.436 55.351 162.633 58.3662C160.845 61.3663 158.376 63.6695 155.224 65.2757C152.088 66.8668 148.49 67.6625 144.429 67.6627C139.899 67.663 135.922 66.7011 132.497 64.777C129.073 62.853 126.398 60.1107 124.474 56.5502C122.565 52.9897 121.61 48.7549 121.61 43.8458C121.609 39.9973 122.193 36.5882 123.359 33.6184C124.541 30.6487 126.177 28.141 128.268 26.0954C130.359 24.0347 132.775 22.4816 135.517 21.4359C138.26 20.3752 141.199 19.8447 144.336 19.8445C147.093 19.8444 149.654 20.2382 152.017 21.0259C154.396 21.7985 156.495 22.9045 158.313 24.3438C160.146 25.7679 161.624 27.4572 162.745 29.4117C163.867 31.3662 164.548 33.5101 164.791 35.8434L152.018 35.8441ZM180.024 20.4789L180.027 67.0244L167.39 67.0251L167.388 20.4796L180.024 20.4789ZM225.628 37.9309L212.81 37.9316C212.719 36.871 212.477 35.9089 212.083 35.0453C211.704 34.1817 211.173 33.4393 210.492 32.8181C209.825 32.1818 209.014 31.697 208.06 31.3637C207.105 31.0153 206.022 30.8411 204.81 30.8411C202.688 30.8413 200.893 31.3565 199.423 32.3869C197.969 33.4173 196.863 34.8946 196.105 36.8189C195.363 38.7432 194.992 41.0538 194.992 43.7508C194.992 46.5993 195.371 48.9856 196.129 50.9098C196.902 52.8189 198.015 54.2582 199.47 55.2278C200.925 56.1823 202.675 56.6594 204.72 56.6593C205.887 56.6593 206.932 56.5153 207.856 56.2273C208.781 55.9243 209.584 55.4924 210.265 54.9317C210.947 54.3711 211.5 53.6968 211.924 52.9089C212.364 52.1059 212.659 51.2043 212.811 50.2043L225.629 50.2945C225.477 52.2642 224.925 54.2718 223.97 56.3173C223.016 58.3477 221.66 60.2266 219.902 61.9539C218.16 63.6662 216.001 65.0451 213.425 66.0907C210.849 67.1363 207.857 67.6592 204.448 67.6593C200.175 67.6596 196.342 66.7431 192.948 64.91C189.569 63.0768 186.895 60.38 184.925 56.8195C182.97 53.259 181.992 48.903 181.992 43.7515C181.992 38.5697 182.992 34.206 184.991 30.6604C186.991 27.0997 189.688 24.4102 193.082 22.5918C196.476 20.7583 200.264 19.8414 204.445 19.8412C207.385 19.841 210.089 20.2424 212.559 21.0453C215.029 21.8481 217.196 23.0223 219.059 24.5676C220.923 26.0978 222.423 27.9841 223.56 30.2265C224.696 32.4688 225.386 35.037 225.628 37.9309ZM248.524 67.0205L234.887 67.0213L250.248 20.475L267.521 20.474L282.887 67.0186L269.251 67.0193L259.067 33.2926L258.704 33.2927L248.524 67.0205ZM245.977 48.657L271.614 48.6556L271.614 58.1101L245.978 58.1116L245.977 48.657ZM296.164 20.4724L296.167 67.0178L283.53 67.0185L283.528 20.4731L296.164 20.4724ZM338.585 20.47L338.588 67.0155L328.043 67.016L311.223 42.5624L310.95 42.5625L310.952 67.017L298.315 67.0177L298.313 20.4723L309.04 20.4717L325.587 44.8344L325.95 44.8343L325.949 20.4707L338.585 20.47ZM351.268 20.4693L351.268 25.9238C351.268 27.4087 350.966 28.8935 350.36 30.3784C349.769 31.8482 349.011 33.2194 348.087 34.4922C347.178 35.7498 346.239 36.8029 345.269 37.6514L340.087 35.0154C340.723 33.9244 341.292 32.6592 341.791 31.2198C342.291 29.7804 342.541 28.0152 342.541 25.9243L342.541 20.4698L351.268 20.4693ZM352.048 30.6511L352.047 20.4692L392.502 20.467L392.503 30.6488L378.503 30.6496L378.505 67.0132L366.05 67.0139L366.048 30.6503L352.048 30.6511ZM445.783 37.9185L432.965 37.9192C432.874 36.8586 432.632 35.8965 432.238 35.0329C431.859 34.1693 431.328 33.4269 430.647 32.8057C429.98 32.1694 429.169 31.6846 428.215 31.3513C427.26 31.0029 426.177 30.8287 424.965 30.8288C422.843 30.8289 421.048 31.3442 419.578 32.3745C418.124 33.4049 417.018 34.8823 416.26 36.8066C415.518 38.7308 415.147 41.0415 415.147 43.7384C415.147 46.5869 415.526 48.9733 416.284 50.8975C417.057 52.8065 418.17 54.2458 419.625 55.2155C421.08 56.1699 422.83 56.6471 424.875 56.647C426.042 56.6469 427.087 56.5029 428.011 56.215C428.936 55.9119 429.739 55.48 430.42 54.9194C431.102 54.3587 431.655 53.6845 432.079 52.8966C432.519 52.0935 432.814 51.192 432.966 50.192L445.784 50.2822C445.632 52.2519 445.08 54.2595 444.125 56.305C443.171 58.3353 441.815 60.2142 440.057 61.9416C438.315 63.6538 436.156 65.0327 433.58 66.0783C431.005 67.1239 428.012 67.6468 424.603 67.647C420.33 67.6472 416.497 66.7308 413.103 64.8976C409.724 63.0645 407.05 60.3677 405.08 56.8072C403.125 53.2467 402.147 48.8907 402.147 43.7392C402.147 38.5573 403.147 34.1936 405.146 30.6481C407.146 27.0874 409.843 24.3978 413.237 22.5794C416.631 20.7459 420.419 19.829 424.6 19.8288C427.54 19.8286 430.244 20.23 432.714 21.0329C435.184 21.8358 437.351 23.0099 439.214 24.5553C441.078 26.0855 442.578 27.9717 443.715 30.2141C444.851 32.4565 445.541 35.0246 445.783 37.9185ZM447.678 67.0093L447.675 20.4639L460.311 20.4632L460.313 38.645L477.04 38.644L477.039 20.4622L489.675 20.4615L489.678 67.007L477.041 67.0077L477.04 48.8259L460.313 48.8268L460.314 67.0086L447.678 67.0093ZM491.838 67.0069L491.835 20.4614L525.381 20.4595L525.381 30.6413L504.472 30.6425L504.473 38.6425L523.654 38.6414L523.655 48.8233L504.473 48.8243L504.474 56.8243L525.292 56.8232L525.292 67.005L491.838 67.0069ZM539.901 67.0042L526.265 67.0049L541.626 20.4586L558.899 20.4576L574.265 67.0022L560.628 67.003L550.445 33.2763L550.081 33.2763L539.901 67.0042ZM537.355 48.6407L562.991 48.6392L562.992 58.0938L537.355 58.0952L537.355 48.6407ZM574.908 67.0022L574.905 20.4567L594.996 20.4556C598.451 20.4554 601.473 21.1371 604.064 22.5006C606.655 23.864 608.671 25.7806 610.11 28.2502C611.55 30.7198 612.27 33.6062 612.27 36.9092C612.27 40.2425 611.528 43.1289 610.043 45.5684C608.573 48.0079 606.505 49.8868 603.839 51.2051C601.187 52.5234 598.089 53.1827 594.543 53.1829L582.543 53.1836L582.543 43.3654L591.997 43.3649C593.482 43.3648 594.747 43.1071 595.793 42.5919C596.853 42.0616 597.664 41.3115 598.224 40.3418C598.8 39.3721 599.088 38.2281 599.088 36.9099C599.088 35.5766 598.8 34.4402 598.224 33.5009C597.663 32.5464 596.853 31.8191 595.792 31.3192C594.747 30.8041 593.481 30.5466 591.997 30.5467L587.542 30.5469L587.544 67.0015L574.908 67.0022Z" fill="white"/>
</svg>
