<svg width="89" height="63" viewBox="0 0 89 63" fill="none" xmlns="http://www.w3.org/2000/svg">
<rect x="1" y="1" width="87" height="61" rx="12" stroke="white" stroke-width="2"/>
<path d="M12.5823 7.95635L17.497 7.95607L20.8782 16.1945L21.0486 16.1945L24.4289 7.95569L29.3436 7.95541L29.3445 22.5009L25.4808 22.5011L25.4803 14.092L25.3667 14.092L22.1285 22.3876L19.799 22.3878L16.5599 14.0357L16.4463 14.0357L16.4467 22.5016L12.5831 22.5018L12.5823 7.95635ZM33.7943 22.5006L29.5329 22.5009L34.3333 7.95513L39.731 7.95483L44.5329 22.5L40.2716 22.5003L37.0892 11.9607L36.9755 11.9607L33.7943 22.5006ZM32.9985 16.762L41.0099 16.7616L41.0101 19.7161L32.9987 19.7166L32.9985 16.762ZM53.4958 12.7552C53.4342 12.5042 53.3371 12.2841 53.2045 12.0947C53.0719 11.9006 52.9062 11.7372 52.7073 11.6047C52.5132 11.4674 52.2859 11.3656 52.0255 11.2993C51.7698 11.2283 51.4881 11.1928 51.1803 11.1928C50.5174 11.1929 49.9516 11.3515 49.4829 11.6688C49.0189 11.986 48.6638 12.443 48.4176 13.0396C48.1762 13.6362 48.0555 14.3559 48.0555 15.1987C48.0556 16.051 48.1716 16.7801 48.4037 17.3862C48.6357 17.9922 48.9814 18.4562 49.4407 18.7781C49.9 19.1001 50.4705 19.261 51.1524 19.261C51.7537 19.261 52.2532 19.1733 52.6509 18.9981C53.0534 18.8229 53.354 18.5743 53.5529 18.2523C53.7517 17.9304 53.8511 17.5516 53.8511 17.116L54.5329 17.187L51.2091 17.1871L51.2089 14.3746L57.6578 14.3743L57.6579 16.3913C57.658 17.7171 57.3763 18.8511 56.8129 19.7934C56.2542 20.7309 55.4825 21.4506 54.4977 21.9526C53.5176 22.4498 52.3931 22.6984 51.1242 22.6985C49.7084 22.6986 48.4655 22.398 47.3954 21.7967C46.3253 21.1955 45.4895 20.3385 44.8882 19.2258C44.2915 18.1132 43.9931 16.7898 43.9931 15.2557C43.993 14.0531 44.1752 12.9877 44.5397 12.0597C44.909 11.1316 45.4203 10.348 46.0737 9.70873C46.7271 9.06476 47.4823 8.57939 48.3393 8.25264C49.1962 7.92115 50.1148 7.75538 51.0949 7.75533C51.9566 7.75528 52.7568 7.87834 53.4955 8.12451C54.2389 8.36594 54.8947 8.71155 55.4629 9.16133C56.0358 9.60637 56.4975 10.1343 56.8479 10.7451C57.1983 11.3558 57.4114 12.0258 57.4872 12.755L53.4958 12.7552ZM62.2475 7.95356L62.2484 22.499L58.2995 22.4992L58.2987 7.95379L62.2475 7.95356ZM76.4988 13.4073L72.4932 13.4075C72.4647 13.0761 72.389 12.7754 72.2658 12.5056C72.1475 12.2357 71.9817 12.0037 71.7686 11.8096C71.5603 11.6107 71.307 11.4592 71.0087 11.3551C70.7104 11.2462 70.3718 11.1917 69.993 11.1918C69.3302 11.1918 68.7691 11.3528 68.3098 11.6748C67.8553 11.9968 67.5097 12.4585 67.273 13.0598C67.041 13.6612 66.925 14.3832 66.9251 15.226C66.9251 16.1162 67.0435 16.8619 67.2803 17.4632C67.5218 18.0598 67.8699 18.5096 68.3244 18.8126C68.779 19.1109 69.3259 19.26 69.9651 19.2599C70.3297 19.2599 70.6564 19.2149 70.9452 19.125C71.234 19.0302 71.4849 18.8953 71.698 18.7201C71.9111 18.5449 72.0839 18.3342 72.2164 18.0879C72.3537 17.837 72.446 17.5553 72.4934 17.2428L76.4991 17.2709C76.4517 17.8865 76.279 18.5139 75.9807 19.1531C75.6824 19.7876 75.2587 20.3747 74.7095 20.9145C74.165 21.4496 73.4903 21.8805 72.6854 22.2072C71.8805 22.534 70.9454 22.6974 69.88 22.6975C68.5448 22.6975 67.3469 22.4111 66.2863 21.8383C65.2303 21.2654 64.3946 20.4227 63.779 19.31C63.1681 18.1974 62.8627 16.8361 62.8626 15.2263C62.8625 13.6069 63.1749 12.2433 63.7999 11.1353C64.4248 10.0226 65.2675 9.18209 66.3281 8.61385C67.3887 8.04087 68.5724 7.75434 69.8792 7.75427C70.7978 7.75422 71.6429 7.87965 72.4147 8.13055C73.1865 8.38145 73.8636 8.74837 74.4461 9.23129C75.0285 9.70947 75.4973 10.2989 75.8524 10.9997C76.2076 11.7004 76.423 12.503 76.4988 13.4073ZM24.087 38.5012L19.8256 38.5014L24.626 23.9557L30.0237 23.9554L34.8256 38.5006L30.5643 38.5008L27.3819 27.9612L27.2682 27.9612L24.087 38.5012ZM23.2912 32.7626L31.3026 32.7621L31.3028 35.7167L23.2914 35.7171L23.2912 32.7626ZM38.9746 23.9549L38.9754 38.5003L35.0266 38.5005L35.0257 23.9551L38.9746 23.9549ZM52.2313 23.9541L52.2321 38.4996L48.9367 38.4998L43.6805 30.858L43.5953 30.858L43.5957 38.5001L39.6469 38.5003L39.6461 23.9548L42.9983 23.9546L48.1692 31.568L48.2829 31.568L48.2824 23.9543L52.2313 23.9541ZM56.1946 23.9539L56.1947 25.6584C56.1948 26.1225 56.1001 26.5865 55.9107 27.0505C55.7261 27.5098 55.4894 27.9383 55.2006 28.3361C54.9165 28.7291 54.623 29.0582 54.3199 29.3233L52.7006 28.4996C52.8994 28.1586 53.077 27.7633 53.2332 27.3134C53.3894 26.8636 53.4675 26.312 53.4675 25.6586L53.4674 23.9541L56.1946 23.9539ZM56.4384 27.1357L56.4382 23.9539L69.0802 23.9532L69.0804 27.135L64.7054 27.1352L64.706 38.4989L60.814 38.4991L60.8134 27.1355L56.4384 27.1357ZM25.4901 45.4102L21.4844 45.4104C21.456 45.079 21.3802 44.7783 21.2571 44.5084C21.1387 44.2385 20.973 44.0065 20.7599 43.8124C20.5515 43.6136 20.2982 43.4621 19.9999 43.3579C19.7016 43.249 19.3631 43.1946 18.9843 43.1946C18.3214 43.1947 17.7603 43.3557 17.3011 43.6777C16.8465 43.9997 16.5009 44.4613 16.2642 45.0627C16.0322 45.664 15.9163 46.3861 15.9163 47.2289C15.9164 48.119 16.0348 48.8648 16.2716 49.4661C16.5131 50.0627 16.8611 50.5125 17.3157 50.8155C17.7702 51.1137 18.3171 51.2628 18.9563 51.2628C19.3209 51.2628 19.6476 51.2178 19.9364 51.1278C20.2253 51.0331 20.4762 50.8981 20.6893 50.7229C20.9023 50.5477 21.0751 50.337 21.2077 50.0908C21.345 49.8399 21.4373 49.5581 21.4846 49.2456L25.4903 49.2738C25.443 49.8893 25.2702 50.5167 24.972 51.1559C24.6737 51.7904 24.25 52.3776 23.7007 52.9174C23.1563 53.4524 22.4816 53.8834 21.6767 54.2101C20.8718 54.5369 19.9366 54.7003 18.8713 54.7003C17.5361 54.7004 16.3381 54.414 15.2775 53.8411C14.2216 53.2683 13.3858 52.4255 12.7703 51.3129C12.1594 50.2002 11.8539 48.839 11.8538 47.2291C11.8537 45.6098 12.1662 44.2461 12.7911 43.1382C13.416 42.0254 14.2588 41.1849 15.3194 40.6167C16.3799 40.0437 17.5636 39.7572 18.8705 39.7571C19.789 39.7571 20.6342 39.8825 21.406 40.1334C22.1778 40.3843 22.8549 40.7512 23.4373 41.2342C24.0197 41.7123 24.4885 42.3018 24.8437 43.0025C25.1988 43.7033 25.4143 44.5058 25.4901 45.4102ZM26.0822 54.501L26.0813 39.9556L30.0302 39.9554L30.0305 45.6372L35.2578 45.6369L35.2575 39.9551L39.2063 39.9549L39.2072 54.5003L35.2583 54.5005L35.258 48.8187L30.0307 48.819L30.031 54.5008L26.0822 54.501ZM39.8822 54.5003L39.8813 39.9548L50.3643 39.9542L50.3645 43.136L43.8304 43.1364L43.8305 45.6364L49.8248 45.6361L49.825 48.8179L43.8307 48.8182L43.8308 51.3182L50.3365 51.3179L50.3367 54.4997L39.8822 54.5003ZM54.902 54.4994L50.6406 54.4997L55.4409 39.9539L60.8387 39.9536L65.6406 54.4988L61.3792 54.4991L58.1968 43.9595L58.0832 43.9595L54.902 54.4994ZM54.1062 48.7608L62.1176 48.7604L62.1177 51.7149L54.1064 51.7154L54.1062 48.7608ZM65.8415 54.4988L65.8407 39.9534L72.1191 39.953C73.1987 39.9529 74.1433 40.166 74.953 40.5921C75.7626 41.0181 76.3924 41.6171 76.8423 42.3888C77.2921 43.1606 77.5171 44.0626 77.5171 45.0948C77.5172 46.1364 77.2852 47.0384 76.8213 47.8008C76.362 48.5631 75.7158 49.1503 74.8824 49.5622C74.0539 49.9742 73.0856 50.1802 71.9776 50.1803L68.2276 50.1805L68.2275 47.1123L71.182 47.1122C71.646 47.1121 72.0414 47.0316 72.3681 46.8706C72.6995 46.7049 72.9528 46.4705 73.128 46.1674C73.3079 45.8644 73.3978 45.5069 73.3978 45.095C73.3978 44.6783 73.3078 44.3232 73.1279 44.0297C72.9527 43.7314 72.6993 43.5041 72.3679 43.3479C72.0412 43.1869 71.6458 43.1064 71.1818 43.1065L69.7898 43.1065L69.7904 54.4986L65.8415 54.4988Z" fill="white"/>
</svg>
